<?xml version="1.0" standalone="no"?>
<!DOCTYPE svg PUBLIC "-//W3C//DTD SVG 20010904//EN"
 "http://www.w3.org/TR/2001/REC-SVG-20010904/DTD/svg10.dtd">
<svg version="1.0" xmlns="http://www.w3.org/2000/svg"
 width="1024.000000pt" height="1024.000000pt" viewBox="0 0 1024.000000 1024.000000"
 preserveAspectRatio="xMidYMid meet">
<metadata>
Created by potrace 1.14, written by Peter Selinger 2001-2017
</metadata>
<g transform="translate(0.000000,1024.000000) scale(0.100000,-0.100000)"
fill="#000000" stroke="none">
<path d="M0 5120 l0 -5120 5120 0 5120 0 0 5120 0 5120 -5120 0 -5120 0 0
-5120z m1475 3175 c151 -32 305 -131 390 -249 92 -129 130 -247 129 -401 0
-104 -23 -204 -65 -287 -10 -20 -19 -42 -19 -47 0 -12 299 -351 310 -351 4 0
44 22 89 50 247 148 571 203 854 145 151 -31 327 -103 434 -177 48 -32 59 -30
106 19 l28 30 -31 65 c-138 295 -24 660 258 832 434 264 996 -52 996 -559 0
-182 -57 -326 -179 -454 -132 -138 -280 -203 -465 -205 -126 -1 -188 13 -300
67 -47 23 -88 43 -91 45 -3 1 -18 -13 -33 -32 l-26 -35 55 -73 c104 -137 190
-340 222 -523 23 -135 14 -378 -20 -505 -19 -71 -22 -98 -14 -106 7 -6 172
-95 367 -199 195 -103 364 -194 374 -201 18 -12 27 -6 100 69 172 176 353 282
586 343 166 43 397 48 557 13 32 -8 57 -9 62 -3 5 5 133 243 285 530 153 288
290 533 305 548 71 68 190 45 237 -46 21 -40 17 -107 -7 -148 -36 -58 -550
-1003 -547 -1004 2 -1 42 -27 91 -59 334 -219 547 -614 547 -1017 0 -99 -21
-244 -50 -350 -28 -103 -128 -301 -194 -385 -31 -38 -64 -82 -75 -96 l-20 -26
60 -86 c33 -48 63 -87 67 -87 4 0 41 12 82 27 67 24 89 27 210 27 121 0 142
-2 208 -26 201 -73 345 -217 416 -417 27 -78 30 -98 30 -206 -1 -102 -5 -132
-27 -200 -38 -114 -90 -196 -179 -280 -129 -121 -273 -179 -448 -178 -177 1
-321 58 -448 178 -89 84 -142 167 -178 279 -34 108 -40 209 -20 315 15 83 64
202 107 262 l21 29 -38 53 c-21 28 -50 68 -66 88 l-27 36 -118 -59 c-321 -159
-690 -169 -1028 -27 -38 16 -72 29 -76 29 -3 0 -27 -33 -53 -74 l-47 -75 65
-66 c124 -125 193 -311 183 -490 -15 -274 -195 -509 -451 -591 -428 -136 -860
176 -860 621 0 187 59 330 189 461 139 141 279 199 470 196 61 0 120 -2 133
-4 19 -3 30 11 75 94 l51 96 -76 80 c-222 232 -339 525 -339 846 0 152 19 275
62 396 16 47 31 89 32 93 2 9 -731 406 -750 407 -7 0 -27 -21 -45 -47 -47 -70
-182 -201 -268 -262 -405 -285 -943 -303 -1357 -45 -40 25 -77 44 -82 42 -5
-2 -101 -99 -214 -215 l-205 -213 30 -72 c137 -325 -1 -699 -315 -852 -360
-176 -798 15 -917 399 -94 304 50 640 335 780 99 49 183 68 295 68 112 -1 195
-20 293 -69 l69 -35 207 203 c113 111 208 203 210 205 2 1 -19 33 -47 71 -98
132 -169 286 -213 462 -20 81 -23 120 -23 270 0 150 3 189 23 270 45 179 113
326 214 463 l58 78 -33 37 c-18 21 -86 96 -151 168 l-118 132 -52 -28 c-183
-99 -419 -101 -607 -5 -228 115 -371 365 -357 620 23 405 398 693 792 610z
m7031 -1872 l70 -36 55 42 c119 90 248 133 399 134 257 0 475 -135 591 -368
52 -106 73 -204 66 -320 -11 -175 -73 -313 -197 -437 -322 -319 -866 -218
-1055 196 -18 39 -38 96 -46 126 -18 76 -16 231 4 306 9 34 17 64 17 67 0 3
-116 67 -257 142 -142 75 -262 140 -266 144 -4 5 3 46 17 92 13 47 27 107 31
134 4 28 9 53 11 57 2 3 113 -50 247 -118 133 -69 274 -141 313 -161z"/>
<path d="M2785 7069 c-171 -22 -399 -114 -536 -218 -200 -152 -349 -376 -416
-629 -24 -87 -26 -115 -26 -272 0 -157 2 -185 26 -272 52 -194 145 -362 278
-503 98 -103 183 -165 314 -230 310 -154 638 -163 955 -26 307 132 543 408
637 747 26 92 28 113 28 284 0 171 -2 192 -28 284 -41 147 -121 308 -207 416
l-20 25 -61 -63 c-69 -72 -90 -82 -161 -82 -99 0 -148 49 -148 146 0 47 2 51
76 125 l76 77 -68 40 c-216 128 -471 182 -719 151z"/>
<path d="M5735 5490 c-268 -24 -509 -137 -698 -328 l-79 -79 79 -46 c43 -25
88 -56 100 -68 66 -71 57 -196 -17 -234 -16 -8 -55 -15 -89 -15 -51 0 -71 6
-146 46 -48 25 -88 44 -90 42 -10 -10 -59 -172 -71 -237 -19 -101 -19 -304 1
-410 106 -554 601 -946 1159 -918 178 9 359 60 494 137 l52 31 -29 42 c-16 23
-68 94 -115 157 -47 63 -91 132 -96 153 -15 52 2 105 45 147 30 29 43 34 92
37 84 6 104 -11 224 -186 57 -83 108 -150 113 -148 24 8 129 159 175 252 307
618 -3 1359 -658 1574 -132 43 -306 63 -446 51z"/>
</g>
</svg>
